<?xml version="1.0" encoding="UTF-8" standalone="no"?>
<svg
   xmlns:dc="http://purl.org/dc/elements/1.1/"
   xmlns:cc="http://creativecommons.org/ns#"
   xmlns:rdf="http://www.w3.org/1999/02/22-rdf-syntax-ns#"
   xmlns:svg="http://www.w3.org/2000/svg"
   xmlns="http://www.w3.org/2000/svg"
   xmlns:xlink="http://www.w3.org/1999/xlink"
   xmlns:sodipodi="http://sodipodi.sourceforge.net/DTD/sodipodi-0.dtd"
   xmlns:inkscape="http://www.inkscape.org/namespaces/inkscape"
   enable-background="new 0 0 128 128"
   viewBox="0 0 128 128"
   version="1.1"
   id="svg59"
   sodipodi:docname="constore.svg"
   inkscape:version="0.92.4 (unknown)">
  <metadata
     id="metadata65">
    <rdf:RDF>
      <cc:Work
         rdf:about="">
        <dc:format>image/svg+xml</dc:format>
        <dc:type
           rdf:resource="http://purl.org/dc/dcmitype/StillImage" />
        <dc:title />
      </cc:Work>
    </rdf:RDF>
  </metadata>
  <defs
     id="defs63">
    <linearGradient
       gradientUnits="userSpaceOnUse"
       y2="123.9"
       y1="4.9626999"
       x2="64"
       x1="64"
       id="c"
       spreadMethod="pad">
      <stop
         id="stop4575"
         offset=".0147"
         stop-color="#A1887F" />
      <stop
         id="stop4577"
         offset=".2039"
         stop-color="#9D8279" />
      <stop
         id="stop4579"
         offset="1"
         stop-color="#8D6E63" />
    </linearGradient>
  </defs>
  <sodipodi:namedview
     pagecolor="#ffffff"
     bordercolor="#666666"
     borderopacity="1"
     objecttolerance="10"
     gridtolerance="10"
     guidetolerance="10"
     inkscape:pageopacity="0"
     inkscape:pageshadow="2"
     inkscape:window-width="960"
     inkscape:window-height="1020"
     id="namedview61"
     showgrid="false"
     inkscape:zoom="0.65186406"
     inkscape:cx="74.205699"
     inkscape:cy="66.062807"
     inkscape:window-x="960"
     inkscape:window-y="28"
     inkscape:window-maximized="0"
     inkscape:current-layer="svg59" />
  <linearGradient
     id="c-3"
     x1="64"
     x2="64"
     y1="4.9626999"
     y2="123.9"
     gradientUnits="userSpaceOnUse"
     spreadMethod="pad">
    <stop
       stop-color="#A1887F"
       offset=".0147"
       id="stop2" />
    <stop
       stop-color="#9D8279"
       offset=".2039"
       id="stop4" />
    <stop
       stop-color="#8D6E63"
       offset="1"
       id="stop6" />
  </linearGradient>
  <path
     d="m110.16 96.56h-0.02v-78.46c0-7.64-6.2-13.85-13.85-13.85h-78.45c-7.64 0-13.85 6.2-13.85 13.85s6.2 13.85 13.85 13.85h0.02 9.22v78.46c0 7.64 6.2 13.85 13.85 13.85 0.1 0 0.18-0.03 0.27-0.03h68.98v0.03c7.65 0 13.85-6.2 13.85-13.85-0.02-7.65-6.22-13.85-13.87-13.85z"
     fill="url(#c)"
     id="path9"
     style="fill-opacity:1;fill:#142e54" />
  <path
     d="m17.84 8.87c5.1 0 9.23 4.14 9.23 9.23v4.44c-0.1-5-4.18-9.05-9.21-9.05-4.3 0-7.89 2.97-8.91 6.95-0.2-0.75-0.34-1.52-0.34-2.34 0-5.09 4.14-9.23 9.23-9.23z"
     fill="#5D4037"
     id="path11"
     style="fill:#051a38;fill-opacity:1" />
  <circle
     cx="17.86"
     cy="21.2"
     r="4.62"
     fill="#6D4C41"
     id="circle13"
     style="fill:#051a38;fill-opacity:1" />
  <linearGradient
     id="b"
     x1="66.810997"
     x2="66.810997"
     y1="9.5233002"
     y2="119.62"
     gradientUnits="userSpaceOnUse"
     xlink:href="#c-3">
    <stop
       stop-color="#D7C1AE"
       offset=".0147"
       id="stop15" />
    <stop
       stop-color="#D1BBA9"
       offset=".2517"
       id="stop17" />
    <stop
       stop-color="#C0A99A"
       offset=".5799"
       id="stop19" />
    <stop
       stop-color="#A48C82"
       offset=".9599"
       id="stop21" />
    <stop
       stop-color="#A1887F"
       offset="1"
       id="stop23" />
  </linearGradient>
  <path
     d="m31.68 110.4v-78.46h0.02v-9.23h-0.02v-4.61c0-3.56-1.38-6.78-3.59-9.23h68.21c5.09 0 9.23 4.14 9.23 9.23v78.46h-64.6-0.01-0.01c-5.08 0.01-9.21 4.14-9.21 9.23s4.14 9.23 9.23 9.23c4.28 0 7.85-2.94 8.9-6.9 0.18 0.73 0.31 1.49 0.31 2.28 0 5-3.99 9.06-8.96 9.2h-0.28v0.03c-5.08-0.01-9.22-4.14-9.22-9.23z"
     id="path26"
     style="fill-opacity:1;fill:#4c668c"
     fill="url(#b)" />
  <path
     d="m 45.55,105.79 c 0,2.54 -2.07,4.62 -4.62,4.62 -2.54,0 -4.62,-2.07 -4.62,-4.62 0,-2.54 2.07,-4.61 4.61,-4.62 h 0.02 c 2.55,0.02 4.61,2.08 4.61,4.62 z"
     id="path28"
     inkscape:connector-curvature="0"
     style="fill:#051a38;fill-opacity:1" />
  <path
     d="m110.16 119.63v-0.03h-58.97c2.19-2.45 3.57-5.65 3.57-9.2 0-3.56-1.38-6.78-3.59-9.23h58.99c5.09 0 9.23 4.14 9.23 9.23s-4.14 9.23-9.23 9.23z"
     id="path30" />
  <linearGradient
     id="a"
     x1="85.263"
     x2="85.263"
     y1="101.54"
     y2="120.86"
     gradientUnits="userSpaceOnUse">
    <stop
       stop-color="#D7C1AE"
       offset=".0147"
       id="stop32" />
    <stop
       stop-color="#CFB9A7"
       offset=".2413"
       id="stop34" />
    <stop
       stop-color="#B9A294"
       offset=".6006"
       id="stop36" />
    <stop
       stop-color="#A1887F"
       offset=".9169"
       id="stop38" />
  </linearGradient>
  <path
     d="m110.14 119.63v-0.03h-58.97c2.2-2.45 3.57-5.65 3.57-9.2 0-3.56-1.38-6.78-3.59-9.23h58.99c5.09 0 9.23 4.14 9.23 9.23 0.01 5.09-4.13 9.23-9.23 9.23z"
     fill="url(#a)"
     id="path41"
     style="fill:#4c668c;fill-opacity:1" />
  <g
     opacity=".2"
     id="g57">
    <path
       d="m96.3 7.25c5.98 0 10.85 4.87 10.85 10.85v78.46c0 1.66 1.36 3 3.02 3 5.98 0 10.85 4.87 10.85 10.85 0 5.86-4.67 10.65-10.48 10.84-0.12-0.01-0.24-0.02-0.36-0.02h-68.99c-0.17 0-0.32 0.01-0.43 0.03-5.91-0.09-10.68-4.92-10.68-10.84v-78.48c0-1.66-1.34-3-3-3h-9.23c-5.98 0-10.85-4.87-10.85-10.85s4.86-10.84 10.84-10.84h78.46m0-3h-78.46c-7.64 0-13.85 6.2-13.85 13.85 0 7.64 6.2 13.85 13.85 13.85h0.02 9.22v78.46c0 7.64 6.2 13.85 13.85 13.85 0.1 0 0.18-0.03 0.27-0.03h68.98v0.03c7.65 0 13.85-6.2 13.85-13.85s-6.2-13.85-13.85-13.85h-0.02v-78.46c-0.02-7.65-6.21-13.85-13.86-13.85z"
       fill="#424242"
       id="path55" />
  </g>
  <path
     style="opacity:1;fill:none;fill-opacity:1;stroke:#d0d7e1;stroke-width:4.5999999;stroke-linecap:round;stroke-linejoin:round;stroke-miterlimit:4;stroke-dasharray:none;stroke-opacity:1;paint-order:normal"
     d="M 42.190168,66.708252 51.5863,82.048874 51.202784,31.61658 h 43.529013"
     id="path4588"
     inkscape:connector-curvature="0"
     sodipodi:nodetypes="cccc" />
  <text
     xml:space="preserve"
     style="font-style:normal;font-variant:normal;font-weight:normal;font-stretch:normal;font-size:40px;line-height:1.25;font-family:FreeMono;-inkscape-font-specification:FreeMono;letter-spacing:0px;word-spacing:0px;opacity:1;fill:#d0d7e1;fill-opacity:1;stroke:none"
     x="58.539951"
     y="73.726234"
     id="text4600"><tspan
       sodipodi:role="line"
       id="tspan4598"
       x="58.539951"
       y="73.726234"
       style="font-style:normal;font-variant:normal;font-weight:bold;font-stretch:normal;font-size:53.33333206px;font-family:FreeMono;-inkscape-font-specification:'FreeMono Bold';fill:#d0d7e1;fill-opacity:1">C</tspan></text>
</svg>
